<svg width="28" height="28" viewBox="0 0 28 28" fill="none" xmlns="http://www.w3.org/2000/svg">
<path d="M23.5076 23L26.7513 21.5V17.75M17.0202 11L13.7765 12.5L17.0202 11ZM13.7765 12.5L10.5328 11L13.7765 12.5ZM13.7765 12.5V16.25V12.5ZM26.7513 6.5L23.5076 8L26.7513 6.5ZM26.7513 6.5L23.5076 5L26.7513 6.5ZM26.7513 6.5V10.25V6.5ZM17.0202 2L13.7765 0.5L10.5328 2H17.0202ZM0.801758 6.5L4.04545 5L0.801758 6.5ZM0.801758 6.5L4.04545 8L0.801758 6.5ZM0.801758 6.5V10.25V6.5ZM13.7765 27.5L10.5328 26L13.7765 27.5ZM13.7765 27.5L17.0202 26L13.7765 27.5ZM13.7765 27.5V23.75V27.5ZM4.04545 23L0.801758 21.5V17.75L4.04545 23Z" stroke="#B8B8B8" stroke-linecap="round" stroke-linejoin="round"/>
</svg>
