<svg width="35" height="30" viewBox="0 0 35 30" fill="none" xmlns="http://www.w3.org/2000/svg">
<path d="M17.7107 0.695826C17.4341 0.700509 17.1707 0.8054 16.9769 0.987931C16.7832 1.17046 16.6747 1.41604 16.6747 1.67183V20.2238C16.6747 20.4827 16.7859 20.7309 16.9838 20.914C17.1817 21.097 17.4501 21.1998 17.73 21.1998C18.0098 21.1998 18.2781 21.0969 18.476 20.9139C18.6738 20.7308 18.785 20.4826 18.785 20.2238V1.67196C18.785 1.54229 18.7571 1.41393 18.7029 1.29435C18.6486 1.17477 18.5692 1.06639 18.4692 0.975525C18.3692 0.884662 18.2506 0.813141 18.1203 0.76514C17.9901 0.717139 17.8508 0.693621 17.7107 0.695959V0.695826ZM33.6756 6.25383C33.5381 6.25761 33.4028 6.28614 33.2771 6.33783L24.2203 10.076C24.0349 10.1533 23.8776 10.2785 23.7672 10.4365C23.6569 10.5945 23.5982 10.7786 23.5982 10.9667C23.5982 11.1548 23.6569 11.3389 23.7672 11.4969C23.8776 11.6549 24.0349 11.7801 24.2203 11.8574L33.2771 15.6086C33.4128 15.665 33.5598 15.6945 33.7086 15.695C33.9505 15.6951 34.185 15.6183 34.373 15.4775C34.561 15.3367 34.691 15.1405 34.7412 14.9216C34.7914 14.7028 34.7588 14.4746 34.6488 14.2754C34.5389 14.0761 34.3582 13.9178 34.1372 13.827L27.2375 10.968L34.1372 8.11916C34.392 8.01306 34.5912 7.818 34.691 7.57657C34.7909 7.33515 34.7835 7.06698 34.6703 6.83063C34.5846 6.65436 34.4444 6.5055 34.2674 6.40283C34.0904 6.30016 33.8844 6.24826 33.6756 6.25369V6.25383ZM1.24003 12.9632C1.07731 12.9603 0.916078 12.9922 0.768946 13.0566C0.621814 13.1209 0.492775 13.2159 0.391929 13.334C0.291083 13.4521 0.221165 13.5903 0.187648 13.7376C0.154131 13.8848 0.157924 14.0373 0.19873 14.183C2.70142 23.0857 11.4072 29.3044 21.3652 29.3044C21.6451 29.3044 21.9135 29.2015 22.1114 29.0185C22.3093 28.8355 22.4205 28.5872 22.4205 28.3284C22.4205 28.0695 22.3093 27.8213 22.1114 27.6382C21.9135 27.4552 21.6451 27.3524 21.3652 27.3524C16.9925 27.3537 12.7427 26.0134 9.28186 23.5415C5.82099 21.0696 3.3445 17.6057 2.24039 13.6925C2.18241 13.4867 2.05329 13.304 1.8727 13.1724C1.69211 13.0407 1.46994 12.9672 1.24003 12.9632Z" fill="#B8B8B8"/>
</svg>
