<svg width="24" height="29" viewBox="0 0 24 29" fill="none" xmlns="http://www.w3.org/2000/svg">
<path d="M6.89836 14.5C6.89836 11.9457 9.13726 9.87497 11.8991 9.87497C14.6609 9.87497 16.8998 11.9457 16.8998 14.5C16.8998 17.0543 14.6609 19.125 11.8991 19.125C9.13725 19.125 6.89836 17.0543 6.89836 14.5ZM8.56526 14.5C8.56526 16.2029 10.0579 17.5833 11.8991 17.5833C13.7403 17.5833 15.2329 16.2029 15.2329 14.5C15.2329 12.7971 13.7403 11.4166 11.8991 11.4166C10.0579 11.4166 8.56526 12.7971 8.56526 14.5ZM5.01603 9.62133C4.70719 9.937 4.18013 9.96135 3.83882 9.67572C3.4975 9.39009 3.47117 8.90263 3.78 8.58695C4.02453 8.33701 4.2824 8.09851 4.55265 7.87236C9.03668 4.11987 15.9608 4.4398 20.0181 8.58695C20.327 8.90263 20.3006 9.39009 19.9593 9.67572C19.618 9.96135 19.0909 9.937 18.7821 9.62133C15.3425 6.10553 9.47244 5.83429 5.67104 9.01552C5.44194 9.20724 5.22333 9.40943 5.01603 9.62133ZM23.3692 5.52183C23.6671 5.84632 23.6243 6.33277 23.2734 6.60835C22.9226 6.88393 22.3966 6.84427 22.0986 6.51978C17.3147 1.30992 8.87005 0.673279 3.23697 5.09781C2.68362 5.53244 2.16943 6.008 1.69949 6.51978C1.40152 6.84427 0.875557 6.88393 0.524706 6.60835C0.173856 6.33277 0.130981 5.84632 0.428943 5.52183C0.957424 4.9463 1.53567 4.4115 2.15795 3.92272C8.49273 -1.05296 17.9893 -0.337014 23.3692 5.52183ZM18.7801 19.3807C19.0876 19.064 19.6146 19.0379 19.957 19.3223C20.2995 19.6068 20.3278 20.0942 20.0202 20.4109C15.9916 24.5591 9.08989 24.9014 4.60473 21.1756C4.31457 20.9345 4.03858 20.6793 3.77796 20.4109C3.47038 20.0942 3.49864 19.6068 3.84109 19.3223C4.18353 19.0379 4.71048 19.064 5.01807 19.3807C5.23889 19.6081 5.47274 19.8244 5.71859 20.0286C9.51886 23.1855 15.3667 22.8955 18.7801 19.3807ZM22.0989 22.4799C22.3971 22.1555 22.9231 22.1161 23.2738 22.3919C23.6245 22.6676 23.667 23.1541 23.3689 23.4784C17.9833 29.3371 8.48228 30.0487 2.14767 25.0678C1.52948 24.5817 0.954799 24.0502 0.429232 23.4784C0.131081 23.1541 0.173674 22.6676 0.524365 22.3919C0.875056 22.1161 1.40105 22.1555 1.69919 22.4798C2.16657 22.9883 2.67763 23.4609 3.22736 23.8932C8.8606 28.3226 17.3097 27.6899 22.0989 22.4799Z" fill="#B8B8B8"/>
</svg>
