<svg width="33" height="28" viewBox="0 0 33 28" fill="none" xmlns="http://www.w3.org/2000/svg">
<path d="M27.6914 10.2813C24.741 9.11877 20.7769 8.36877 16.5412 8.16252C15.8654 8.12502 15.2072 8.11252 14.5814 8.11252C17.7143 4.57502 21.0715 2.20002 23.2813 2.12502C23.7165 2.10877 24.0855 2.19377 24.3801 2.37002C25.3343 2.94252 25.6032 4.58002 25.1167 6.85752C25.0626 7.17002 25.2789 7.47377 25.6032 7.53252C25.9411 7.59502 26.2655 7.39502 26.3331 7.08252C26.9413 4.23252 26.4953 2.27502 25.0626 1.41002C24.549 1.10002 23.9273 0.953773 23.238 0.977523C20.4674 1.07377 16.5614 3.85252 12.9798 8.12752C11.4202 8.17127 9.9524 8.29002 8.61167 8.48627C7.73857 4.86502 8.08457 2.26502 9.41448 1.64002C9.601 1.54877 9.79967 1.50252 10.0321 1.48502C10.9742 1.41752 12.2757 1.97877 13.6948 3.07252C13.957 3.27252 14.3517 3.24752 14.5679 2.99752C14.6198 2.93966 14.6589 2.87291 14.6829 2.80108C14.707 2.72924 14.7155 2.65373 14.7079 2.57886C14.7004 2.50399 14.677 2.43123 14.6391 2.36473C14.6011 2.29822 14.5494 2.23928 14.4868 2.19127C12.7839 0.887523 11.2134 0.250023 9.92942 0.337523C9.55228 0.365773 9.18418 0.459045 8.84413 0.612523C7.2358 1.37127 6.58706 3.52127 6.99252 6.66002C7.08713 7.31002 7.20877 7.98752 7.38447 8.68502C2.95007 9.50502 0.125347 11.1475 0.00370837 13.215C-0.0773841 14.6775 1.17279 16.07 3.62584 17.2425C3.69877 17.2835 3.78003 17.3101 3.86456 17.3207C3.94909 17.3313 4.03508 17.3258 4.11719 17.3043C4.19929 17.2829 4.27574 17.2461 4.3418 17.1961C4.40785 17.1462 4.46208 17.0842 4.50112 17.0141C4.54016 16.9439 4.56318 16.8671 4.56873 16.7884C4.57428 16.7096 4.56226 16.6307 4.5334 16.5564C4.50454 16.4822 4.45947 16.4142 4.40099 16.3568C4.34252 16.2993 4.27188 16.2536 4.19348 16.2225C2.23375 15.2888 1.17955 14.2375 1.24307 13.275C1.31065 11.925 3.638 10.5375 7.6764 9.80002C8.04132 11.0425 8.51436 12.34 9.09552 13.6625C7.71965 16.0225 6.72222 18.3463 6.20728 20.4125C5.45042 23.4938 5.85588 25.6875 7.3696 26.5975C7.85616 26.89 8.42381 27.035 9.05497 27.035C10.3187 27.035 11.8486 26.46 13.5786 25.32C13.6488 25.2781 13.7091 25.2234 13.7559 25.1593C13.8026 25.0952 13.8348 25.0231 13.8506 24.9471C13.8664 24.8712 13.8654 24.7931 13.8476 24.7176C13.8299 24.642 13.7958 24.5706 13.7473 24.5075C13.6989 24.4445 13.6372 24.3912 13.5659 24.3508C13.4946 24.3105 13.4152 24.2839 13.3325 24.2727C13.2498 24.2615 13.1655 24.2659 13.0847 24.2856C13.0039 24.3053 12.9282 24.34 12.8623 24.3875C10.7755 25.7663 9.01848 26.2275 8.04808 25.6413C7.02091 25.0225 6.79655 23.2125 7.42637 20.6713C7.85886 18.9388 8.65222 17.0088 9.7348 15.0213C10.0051 15.5688 10.2889 16.1163 10.5863 16.6625C12.5122 20.1575 14.8707 23.1963 17.2223 25.2188C19.0956 26.8313 20.8364 27.6725 22.2703 27.6725C22.7434 27.6725 23.1894 27.5788 23.5894 27.3938C25.137 26.6625 25.806 24.6313 25.4789 21.675C25.1761 18.9088 24.0463 15.5375 22.2974 12.175C22.2236 12.0418 22.0965 11.9405 21.9432 11.8926C21.7899 11.8446 21.6224 11.8539 21.4764 11.9183C21.3303 11.9828 21.2172 12.0973 21.161 12.2377C21.1049 12.3781 21.1101 12.5332 21.1756 12.67C24.8112 19.6725 25.068 25.4075 23.0272 26.37C20.8783 27.3863 15.6964 23.4263 11.6878 16.145C11.2283 15.3263 10.8268 14.52 10.4714 13.7325C10.9309 12.9725 11.4175 12.2075 11.9513 11.445C12.4852 10.69 13.0407 9.96002 13.6056 9.26377H14.1381C14.868 9.26377 15.66 9.27627 16.4817 9.32377C25.3072 9.75252 31.3148 12.5238 31.1919 14.7413C31.1378 15.6975 29.943 16.6638 27.9144 17.3913C27.7619 17.4481 27.6397 17.558 27.574 17.6973C27.5082 17.8367 27.5043 17.9943 27.563 18.1363C27.5918 18.2068 27.6356 18.2713 27.6916 18.3261C27.7477 18.3808 27.815 18.4247 27.8896 18.4552C27.9642 18.4857 28.0446 18.5021 28.1261 18.5036C28.2076 18.5051 28.2886 18.4915 28.3644 18.4638C30.9391 17.5388 32.3515 16.2688 32.4326 14.8013C32.5272 13.1388 30.8513 11.5388 27.7022 10.3013V10.2888L27.6914 10.2813ZM10.9106 10.8125C10.5457 11.3313 10.2078 11.8463 9.87806 12.3675C9.50337 11.46 9.17726 10.536 8.9009 9.59877C9.86455 9.46127 10.9079 9.36127 12.023 9.29877C11.6445 9.78627 11.2742 10.2913 10.9147 10.8113V10.7988L10.9106 10.8125ZM16.2154 12.2813C15.7226 12.2813 15.2499 12.4624 14.9014 12.7847C14.5529 13.107 14.3571 13.5442 14.3571 14C14.3571 14.4559 14.5529 14.893 14.9014 15.2154C15.2499 15.5377 15.7226 15.7188 16.2154 15.7188C16.7083 15.7188 17.181 15.5377 17.5295 15.2154C17.878 14.893 18.0738 14.4559 18.0738 14C18.0738 13.5442 17.878 13.107 17.5295 12.7847C17.181 12.4624 16.7083 12.2813 16.2154 12.2813Z" fill="#B8B8B8"/>
</svg>
