<svg width="30" height="30" viewBox="0 0 30 30" fill="currentColor" xmlns="http://www.w3.org/2000/svg">
<path d="M10.9951 6.49992C10.6592 8.67145 8.80206 10.3891 6.45413 10.6997V19.3001C9.0522 19.6438 11.0494 21.7103 11.0494 24.2083C11.0494 26.9467 8.64912 29.1666 5.68826 29.1666C2.7274 29.1666 0.327148 26.9467 0.327148 24.2083C0.327148 21.7103 2.32432 19.6438 4.92239 19.3001V10.6997C2.32432 10.356 0.327148 8.2895 0.327148 5.79159C0.327148 3.05317 2.7274 0.833252 5.68826 0.833252C8.38909 0.833252 10.6235 2.68038 10.9951 5.08325H17.9422C21.7491 5.08325 24.8351 7.93744 24.8351 11.4583V12.2168C27.4332 12.5605 29.4303 14.627 29.4303 17.1249C29.4303 19.8633 27.0301 22.0833 24.0692 22.0833C21.1084 22.0833 18.7081 19.8633 18.7081 17.1249C18.7081 14.627 20.7053 12.5605 23.3033 12.2168V11.4583C23.3033 8.71984 20.9031 6.49992 17.9422 6.49992H10.9951ZM1.85889 5.79159C1.85889 7.74759 3.57336 9.33325 5.68826 9.33325C7.80316 9.33325 9.51763 7.74759 9.51763 5.79159C9.51763 3.83558 7.80316 2.24992 5.68826 2.24992C3.57336 2.24992 1.85889 3.83558 1.85889 5.79159ZM1.85889 24.2083C1.85889 26.1643 3.57336 27.7499 5.68826 27.7499C7.80316 27.7499 9.51763 26.1643 9.51763 24.2083C9.51763 22.2522 7.80316 20.6666 5.68826 20.6666C3.57336 20.6666 1.85889 22.2522 1.85889 24.2083ZM24.0692 13.5833C21.9543 13.5833 20.2398 15.1689 20.2398 17.1249C20.2398 19.0809 21.9543 20.6666 24.0692 20.6666C26.1841 20.6666 27.8986 19.0809 27.8986 17.1249C27.8986 15.1689 26.1841 13.5833 24.0692 13.5833Z" fill="#B8B8B8"/>
</svg>
