<svg width="30" height="28" viewBox="0 0 30 28" fill="none" xmlns="http://www.w3.org/2000/svg">
<path d="M0.571779 21.7727C0.584349 21.7468 0.598629 21.7214 0.614653 21.6964L13.9972 0.866878C14.3109 0.378586 15.0748 0.377495 15.3901 0.864888L28.9772 21.8649C29.0432 21.9669 29.0799 22.0775 29.0897 22.1884C29.2221 22.4482 29.2909 22.719 29.2909 23C29.2909 25.7311 22.788 27.5 14.6943 27.5C6.60058 27.5 0.0976562 25.7311 0.0976562 23C0.0976562 22.5654 0.262293 22.1553 0.571779 21.7727ZM3.61238 19.9669C6.28412 19.0335 10.2493 18.5 14.6943 18.5C19.1994 18.5 23.2116 19.048 25.8838 20.005L14.6967 2.71439L3.61238 19.9669ZM1.83134 22.6557C1.75758 22.771 1.7195 22.8861 1.7195 23C1.7195 24.4111 7.56073 26 14.6943 26C21.8279 26 27.6691 24.4111 27.6691 23C27.6691 21.5889 21.8279 20 14.6943 20C8.55024 20 3.36487 21.1787 2.04454 22.4073L2.00893 22.4627C1.96055 22.538 1.90015 22.6026 1.83134 22.6557Z" fill="#B8B8B8"/>
</svg>
