<svg width="31" height="28" viewBox="0 0 31 28" fill="none" xmlns="http://www.w3.org/2000/svg">
<path d="M10.4987 0.5V3.5M20.2298 0.5V3.5M10.4987 24.5V27.5M20.2298 24.5V27.5M4.01128 9.5H0.767578M4.01128 18.5H0.767578M29.9609 9.5H26.7172M29.9609 18.5H26.7172M7.25497 24.5H23.4735C24.3337 24.5 25.1588 24.1839 25.7671 23.6213C26.3754 23.0587 26.7172 22.2956 26.7172 21.5V6.5C26.7172 5.70435 26.3754 4.94129 25.7671 4.37868C25.1588 3.81607 24.3337 3.5 23.4735 3.5H7.25497C6.39469 3.5 5.56964 3.81607 4.96133 4.37868C4.35302 4.94129 4.01128 5.70435 4.01128 6.5V21.5C4.01128 22.2956 4.35302 23.0587 4.96133 23.6213C5.56964 24.1839 6.39469 24.5 7.25497 24.5ZM10.4987 9.5H20.2298V18.5H10.4987V9.5Z" stroke="#B8B8B8" stroke-linecap="round" stroke-linejoin="round"/>
</svg>
