<svg width="15" height="60" viewBox="0 0 15 60" fill="none" xmlns="http://www.w3.org/2000/svg">
<path d="M6.73918 59.1826C7.12971 59.5732 7.76287 59.5732 8.1534 59.1826L14.5174 52.8187C14.9079 52.4281 14.9079 51.795 14.5174 51.4045C14.1268 51.0139 13.4937 51.0139 13.1031 51.4045L7.44629 57.0613L1.78944 51.4045C1.39891 51.0139 0.765748 51.0139 0.375223 51.4045C-0.0153011 51.795 -0.015301 52.4282 0.375223 52.8187L6.73918 59.1826ZM6.44629 4.4375L6.44629 58.4755L8.44629 58.4755L8.44629 4.4375L6.44629 4.4375Z" fill="url(#paint0_linear_744_641)"/>
<line x1="7.44629" y1="2.43652" x2="7.44629" y2="0.436523" stroke="#99A9FF" stroke-width="2"/>
<defs>
<linearGradient id="paint0_linear_744_641" x1="7.44632" y1="58.4755" x2="8.86093" y2="4.47456" gradientUnits="userSpaceOnUse">
<stop stop-color="#66FFE5"/>
<stop offset="1" stop-color="#99A9FF"/>
</linearGradient>
</defs>
</svg>
